<svg width="100" height="100" viewBox="0 0 100 100" fill="none" xmlns="http://www.w3.org/2000/svg">
<rect width="100" height="100" rx="50" fill="black"/>
<path d="M64.0434 43.3756C64.6472 43.3756 65.23 43.4676 65.7785 43.6379L70.7767 38.6398L68.4472 36.3103L61.3818 43.3756H64.0434Z" fill="white"/>
<path d="M74.1419 42.0051L72.8481 40.7113L68.3218 45.2377C69.3013 46.2854 69.9026 47.6909 69.9026 49.2349V50.3875L74.1419 46.1482C75.286 45.0042 75.286 43.1492 74.1419 42.0051Z" fill="white"/>
<path d="M66.3756 34.2388L57.9949 25.8581C56.8508 24.714 54.9958 24.714 53.8517 25.8581L36.3342 43.3757H57.2387L66.3756 34.2388Z" fill="white"/>
<path d="M32.6889 55.5922H37.152V58.8865H32.6889V55.5922Z" fill="white"/>
<path d="M64.0434 46.3053H27.9297C26.3116 46.3053 25 47.6169 25 49.235V72.0702C25 73.6883 26.3116 74.9999 27.9297 74.9999H64.0434C65.6613 74.9999 66.973 73.6883 66.973 72.0702V49.235C66.973 47.6169 65.6613 46.3053 64.0434 46.3053ZM29.7592 52.6624H40.0816V61.8161H29.7592V52.6624ZM35.4585 68.6427H29.6681V65.713H35.4585V68.6427ZM44.4072 68.6427H38.6168V65.713H44.4072V68.6427ZM53.3562 68.6427H47.5657V65.713H53.3562V68.6427ZM62.305 68.6427H56.5146V65.713H62.305V68.6427Z" fill="white"/>
</svg>
