<svg width="100" height="100" viewBox="0 0 100 100" fill="none" xmlns="http://www.w3.org/2000/svg">
<rect width="100" height="100" rx="50" fill="black"/>
<path d="M53.1381 56.1719C61.7602 56.1719 68.724 49.1936 68.724 40.5859C68.724 31.9918 61.7322 25 53.1381 25H37.4479C36.639 25 35.9831 25.6559 35.9831 26.4648V46.9661H32.7409C31.9319 46.9661 31.2761 47.622 31.2761 48.431V54.707C31.2761 55.516 31.9319 56.1719 32.7409 56.1719H35.9831V59.5183H32.7409C31.9319 59.5183 31.2761 60.1741 31.2761 60.9831V67.2592C31.2761 68.0682 31.9319 68.724 32.7409 68.724H35.9831V73.5352C35.9831 74.3441 36.639 75 37.4479 75H43.724C44.533 75 45.1889 74.3441 45.1889 73.5352V68.7239H54.707C55.516 68.7239 56.1719 68.0681 56.1719 67.2591V60.983C56.1719 60.174 55.516 59.5182 54.707 59.5182H45.1888V56.1719H53.1381ZM45.1888 34.2058H53.138C56.6559 34.2058 59.5182 37.068 59.5182 40.5859C59.5182 44.1039 56.6559 46.9661 53.138 46.9661H45.1888V34.2058Z" fill="white"/>
</svg>
