<svg width="100" height="100" viewBox="0 0 100 100" fill="none" xmlns="http://www.w3.org/2000/svg">
<rect width="100" height="100" rx="50" fill="black"/>
<path d="M38.898 63.6183C38.7167 63.6183 38.5429 63.6903 38.4147 63.8185C38.2865 63.9467 38.2144 64.1206 38.2144 64.3019V69.1195C38.2144 69.3008 38.2865 69.4746 38.4147 69.6028C38.5429 69.731 38.7167 69.803 38.898 69.803C39.0793 69.803 39.2532 69.731 39.3814 69.6028C39.5096 69.4746 39.5816 69.3008 39.5816 69.1195V64.3019C39.5816 64.1206 39.5096 63.9467 39.3814 63.8185C39.2532 63.6903 39.0793 63.6183 38.898 63.6183Z" fill="white"/>
<path d="M68.8731 57.32L65.6504 54.0973C65.5223 53.9691 65.3485 53.897 65.1672 53.8969H55.2063C55.025 53.8969 54.8511 53.9689 54.7229 54.0971C54.5947 54.2253 54.5227 54.3992 54.5227 54.5805V55.7879L53.1746 55.486L52.9559 53.0805C54.1901 52.5144 55.2781 51.6728 56.1363 50.6205C56.9945 49.5682 57.6 48.3331 57.9063 47.0102C58.455 46.9105 58.9556 46.6327 59.3305 46.2199C59.7055 45.807 59.9339 45.2821 59.9804 44.7263C60.0269 44.1705 59.889 43.6149 59.5879 43.1455C59.2868 42.676 58.8394 42.3189 58.3149 42.1293C58.7563 40.4614 59.5551 36.4184 57.6899 34.1473C56.6973 32.9364 55.1473 32.4223 53.0805 32.6137C52.324 31.8496 51.4257 31.2405 50.436 30.8204C48.7344 30.1016 45.9766 29.6465 42.5 31.5625C38.8574 33.5727 38.7692 38.7942 40.0856 42.1641C39.5727 42.3743 39.1427 42.7468 38.8615 43.2245C38.5803 43.7021 38.4632 44.2588 38.5282 44.8093C38.5932 45.3598 38.8368 45.8738 39.2216 46.2728C39.6063 46.6718 40.1112 46.9338 40.659 47.0188C40.9638 48.3289 41.5621 49.5528 42.4088 50.5979C43.2555 51.6431 44.3285 52.4824 45.5469 53.0524L45.3254 55.4856L36.3969 57.4868C34.863 57.8072 33.4846 58.642 32.4901 59.8529C31.4955 61.0638 30.9444 62.5781 30.9281 64.145V69.12C30.9281 69.3013 31.0002 69.4751 31.1284 69.6033C31.2566 69.7315 31.4304 69.8036 31.6117 69.8036C31.793 69.8036 31.9669 69.7315 32.0951 69.6033C32.2233 69.4751 32.2953 69.3013 32.2953 69.12V64.145C32.3127 62.8886 32.7587 61.6759 33.5593 60.7076C34.36 59.7393 35.4674 59.0735 36.6981 58.8204L43.0395 57.3993L45.9235 60.4129C46.0457 60.5411 46.213 60.6168 46.39 60.6241C46.567 60.6314 46.7399 60.5697 46.8723 60.452L47.2102 60.1504L48.4957 61.5891L46.5856 68.9497C46.54 69.1252 46.5661 69.3116 46.658 69.4678C46.7499 69.6241 46.9001 69.7375 47.0756 69.7831C47.2511 69.8286 47.4375 69.8025 47.5938 69.7106C47.7501 69.6187 47.8635 69.4685 47.909 69.293L49.2492 64.1282L50.5891 69.293C50.6116 69.3799 50.6511 69.4616 50.7052 69.5333C50.7593 69.6049 50.8269 69.6653 50.9043 69.7108C50.9818 69.7563 51.0674 69.7861 51.1563 69.7986C51.2452 69.811 51.3358 69.8058 51.4227 69.7832C51.5096 69.7607 51.5912 69.7213 51.6629 69.6672C51.7346 69.6131 51.7949 69.5454 51.8404 69.468C51.886 69.3906 51.9158 69.305 51.9282 69.216C51.9407 69.1271 51.9355 69.0366 51.9129 68.9497L50.0028 61.5891L51.2891 60.1489L51.6266 60.45C51.759 60.5679 51.932 60.6296 52.1091 60.6224C52.2862 60.6151 52.4535 60.5393 52.5758 60.411L54.5215 58.3778V69.12C54.5215 69.3013 54.5935 69.4751 54.7217 69.6033C54.8499 69.7315 55.0238 69.8036 55.2051 69.8036C55.3864 69.8036 55.5603 69.7315 55.6885 69.6033C55.8167 69.4751 55.8887 69.3013 55.8887 69.12V55.2641H64.4824V57.8032C64.4824 57.9845 64.5545 58.1583 64.6827 58.2865C64.8109 58.4147 64.9847 58.4868 65.166 58.4868H67.7051V69.12C67.7051 69.2097 67.7228 69.2986 67.7571 69.3816C67.7915 69.4645 67.8418 69.5399 67.9053 69.6033C67.9688 69.6668 68.0442 69.7172 68.1271 69.7515C68.21 69.7859 68.2989 69.8036 68.3887 69.8036C68.4785 69.8036 68.5674 69.7859 68.6503 69.7515C68.7332 69.7172 68.8086 69.6668 68.8721 69.6033C68.9356 69.5399 68.9859 69.4645 69.0203 69.3816C69.0546 69.2986 69.0723 69.2097 69.0723 69.12V57.8032C69.0725 57.6221 69.0009 57.4483 68.8731 57.32ZM58.1211 45.4719C58.1284 45.3256 58.1322 45.1784 58.1324 45.0305V43.5657C58.2846 43.6742 58.4085 43.8176 58.4936 43.984C58.5787 44.1504 58.6225 44.3348 58.6214 44.5217C58.6203 44.7086 58.5743 44.8925 58.4872 45.0579C58.4001 45.2232 58.2746 45.3653 58.1211 45.4719ZM43.1602 32.7614C44.4368 32.0089 45.8849 31.5962 47.3664 31.5625C48.2934 31.5636 49.2098 31.7597 50.056 32.1381C50.9022 32.5166 51.6594 33.0688 52.2781 33.759C52.3512 33.8505 52.4466 33.9215 52.5551 33.9653C52.6636 34.0091 52.7816 34.0242 52.8977 34.009C54.6453 33.7856 55.9024 34.1239 56.6332 35.0129C57.9961 36.6719 57.4535 40.0786 56.9805 41.8368C54.375 41.0395 52.0012 38.4805 51.9758 38.4524C51.8573 38.324 51.6943 38.2457 51.52 38.2336C51.3457 38.2214 51.1734 38.2764 51.0383 38.3872C47.9438 40.9379 42.9949 41.7333 41.4625 41.9247C40.2051 39.018 40.2274 34.3801 43.1606 32.7614H43.1602ZM39.8789 44.5137C39.8792 44.3154 39.9298 44.1204 40.0262 43.947C40.1225 43.7736 40.2614 43.6276 40.4297 43.5227V45.0301C40.4297 45.1918 40.4348 45.3528 40.4434 45.5125C40.2711 45.4088 40.1286 45.2625 40.0294 45.0876C39.9303 44.9127 39.8779 44.7152 39.8774 44.5141L39.8789 44.5137ZM41.7969 45.0301V43.2629C43.532 43.0395 48.127 42.2454 51.411 39.8282C52.3004 40.6922 54.4086 42.5387 56.7645 43.1961V45.0321C56.7645 47.0169 55.976 48.9204 54.5725 50.3239C53.169 51.7274 51.2655 52.5159 49.2807 52.5159C47.2959 52.5159 45.3923 51.7274 43.9888 50.3239C42.5854 48.9204 41.7969 47.0169 41.7969 45.0321V45.0301ZM49.2813 53.8813C50.0732 53.8811 50.8616 53.7743 51.625 53.5637L51.8106 55.6055L49.2492 56.6719L46.6875 55.6055L46.875 53.5461C47.6578 53.7683 48.4676 53.8811 49.2813 53.8813ZM44.5977 57.0497L45.8985 56.7579L47.9832 57.6258L46.4543 58.9903L44.5977 57.0497ZM49.2496 60.379L48.2305 59.2383L49.2496 58.3286L50.2688 59.2383L49.2496 60.379ZM52.0442 58.9903L51.6903 58.6743L50.5184 57.6266L52.5996 56.7579L53.9008 57.0497L52.0442 58.9903ZM65.8512 56.2305L66.7399 57.1192H65.8512V56.2305Z" fill="white"/>
<path d="M65.1887 59.6484H58.4063C58.2249 59.6484 58.0511 59.7205 57.9229 59.8487C57.7947 59.9769 57.7227 60.1507 57.7227 60.332C57.7227 60.5133 57.7947 60.6872 57.9229 60.8154C58.0511 60.9436 58.2249 61.0156 58.4063 61.0156H65.1887C65.37 61.0156 65.5438 60.9436 65.672 60.8154C65.8002 60.6872 65.8723 60.5133 65.8723 60.332C65.8723 60.1507 65.8002 59.9769 65.672 59.8487C65.5438 59.7205 65.37 59.6484 65.1887 59.6484Z" fill="white"/>
<path d="M65.1887 62.4464H58.4063C58.2249 62.4464 58.0511 62.5184 57.9229 62.6466C57.7947 62.7748 57.7227 62.9487 57.7227 63.13C57.7227 63.3113 57.7947 63.4852 57.9229 63.6134C58.0511 63.7416 58.2249 63.8136 58.4063 63.8136H65.1887C65.37 63.8136 65.5438 63.7416 65.672 63.6134C65.8002 63.4852 65.8723 63.3113 65.8723 63.13C65.8723 62.9487 65.8002 62.7748 65.672 62.6466C65.5438 62.5184 65.37 62.4464 65.1887 62.4464Z" fill="white"/>
<path d="M65.1887 65.2461H58.4063C58.2249 65.2461 58.0511 65.3181 57.9229 65.4463C57.7947 65.5745 57.7227 65.7484 57.7227 65.9297C57.7227 66.111 57.7947 66.2849 57.9229 66.4131C58.0511 66.5413 58.2249 66.6133 58.4063 66.6133H65.1887C65.37 66.6133 65.5438 66.5413 65.672 66.4131C65.8002 66.2849 65.8723 66.111 65.8723 65.9297C65.8723 65.7484 65.8002 65.5745 65.672 65.4463C65.5438 65.3181 65.37 65.2461 65.1887 65.2461Z" fill="white"/>
</svg>
