<svg width="100" height="100" viewBox="0 0 100 100" fill="none" xmlns="http://www.w3.org/2000/svg">
<rect width="100" height="100" rx="50" fill="black"/>
<g clip-path="url(#clip0)">
<path d="M74.4179 48.2899C73.658 47.0646 72.3152 46.3322 70.826 46.3322H37.6656C36.0218 46.3322 34.5268 47.2587 33.8558 48.6935L25.0851 67.083C25.4162 68.4296 26.6739 69.4355 28.1719 69.4355H63.4522C64.9605 69.4355 66.3391 68.5825 67.0128 67.2329L74.5938 52.0382C75.1923 50.8358 75.1259 49.4346 74.4179 48.2899Z" fill="white"/>
<path d="M32.0705 45.8649C32.7408 44.4305 34.2361 43.5036 35.8803 43.5036H67.1063V39.5096C67.1063 37.8632 65.7173 36.5234 64.0103 36.5234H45.8027C45.776 36.5234 45.7577 36.5166 45.7508 36.5116L42.4919 31.955C41.9148 31.1466 40.9615 30.6641 39.9429 30.6641H28.0968C26.3889 30.6641 25 32.0038 25 33.6502V60.6888L32.0705 45.8649Z" fill="white"/>
</g>
<defs>
<clipPath id="clip0">
<rect width="50" height="50" fill="white" transform="translate(25 25)"/>
</clipPath>
</defs>
</svg>
