<svg width="100" height="100" viewBox="0 0 100 100" fill="none" xmlns="http://www.w3.org/2000/svg">
<rect width="100" height="100" rx="50" fill="black"/>
<g clip-path="url(#clip0)">
<path d="M41.3839 57.5239C41.9925 56.9884 42.0523 56.0612 41.5175 55.452L41.4367 55.3593C41.1799 55.0675 40.8174 54.8905 40.4296 54.8673C40.3973 54.8673 40.3649 54.8673 40.3319 54.8673C39.9758 54.8667 39.6318 54.9965 39.3648 55.2321L37.3969 56.9596L35.6048 58.5325C34.998 59.0687 34.9386 59.9944 35.4719 60.6037L35.5541 60.6979C36.09 61.3062 37.0172 61.3659 37.6267 60.8314L39.0042 59.6226L41.3839 57.5239Z" fill="white"/>
<path d="M36.659 61.5397C36.6182 61.5397 36.5782 61.5397 36.5374 61.5362C36.0557 61.5064 35.606 61.2851 35.2885 60.9219L35.2055 60.8271C34.5458 60.0721 34.6196 58.926 35.3706 58.2618L39.1321 54.9586C39.4951 54.6409 39.9691 54.4798 40.4505 54.5102C40.9322 54.54 41.3819 54.7611 41.6994 55.1245L41.8147 55.2587C42.4436 56.0157 42.3558 57.1357 41.6166 57.7853L37.8565 61.0885C37.526 61.3804 37.0999 61.5409 36.659 61.5397ZM40.3304 55.2145C40.0594 55.2158 39.7981 55.3158 39.5953 55.4956L35.8352 58.7988C35.374 59.207 35.3292 59.911 35.7348 60.3745L35.8177 60.4693C36.2255 60.9312 36.9302 60.9762 37.3934 60.5698L41.1528 57.2666C41.6153 56.8594 41.6605 56.1546 41.254 55.6916L41.1718 55.5967C40.9772 55.3742 40.7016 55.2388 40.4065 55.2208L40.3304 55.2145Z" fill="white"/>
<path d="M46.6613 61.1953C46.3052 61.1948 45.961 61.3242 45.6935 61.5593L43.753 63.2629C43.1432 63.798 43.0827 64.7261 43.6177 65.3359C44.1528 65.9457 45.0809 66.0062 45.6907 65.4712L47.6311 63.7676C48.2409 63.2332 48.302 62.3056 47.7676 61.6958C47.4883 61.3772 47.085 61.1947 46.6613 61.1953Z" fill="white"/>
<path d="M44.7237 66.1866C43.7188 66.1883 42.9027 65.3751 42.9009 64.3701C42.9001 63.8449 43.1262 63.3448 43.5212 62.9986L45.4624 61.295C46.2278 60.6614 47.3545 60.7347 48.0311 61.4623C48.6944 62.2181 48.6195 63.3683 47.8639 64.0317L45.9234 65.7353C45.5918 66.027 45.1651 66.1874 44.7237 66.1866ZM46.662 61.5481C46.3907 61.546 46.1281 61.643 45.9233 61.8208L43.9821 63.5244C43.518 63.9319 43.4723 64.6385 43.8799 65.1025C44.2875 65.5666 44.9941 65.6123 45.458 65.2048L47.3992 63.5032C47.8631 63.0967 47.9095 62.3911 47.503 61.9273C47.2906 61.6849 46.9836 61.5461 46.6613 61.5466L46.662 61.5481Z" fill="white"/>
<path d="M29.3468 34.265L25.4012 51.4782L28.5555 53.2507L36.7179 39.9733L29.3468 34.265Z" fill="white"/>
<path d="M28.6778 53.7223L25 51.6561L29.1262 33.6501L37.1818 39.8876L28.6778 53.7223ZM25.8026 51.3005L28.4332 52.7764L36.254 40.0555L29.5661 34.88L25.8026 51.3005Z" fill="white"/>
<path d="M36.8192 55.5252C37.4288 54.9898 37.4891 54.0617 36.9541 53.4519L36.9288 53.4231C36.6727 53.1297 36.3097 52.951 35.921 52.9269C35.8887 52.9269 35.8563 52.9269 35.8233 52.9269C35.4672 52.9263 35.1233 53.0561 34.8563 53.2917L32.4997 55.3552C31.8901 55.8906 31.8297 56.8186 32.3648 57.4284C32.8892 58.0524 33.8202 58.133 34.4442 57.6085C34.4507 57.6031 34.4571 57.5976 34.4634 57.5921L34.6419 57.4353L36.4355 55.861L36.8192 55.5252Z" fill="white"/>
<path d="M33.5103 58.3066C33.4654 58.3066 33.4196 58.3066 33.3733 58.3017C32.8823 58.2639 32.4262 58.0338 32.104 57.6615C31.4407 56.9061 31.5153 55.7561 32.2706 55.0927L34.6243 53.0272C35.3797 52.3648 36.5288 52.4393 37.1923 53.1937C37.5264 53.5606 37.6973 54.0472 37.666 54.5424C37.6363 55.0244 37.4148 55.4744 37.0511 55.792L34.6981 57.8576C34.3704 58.1475 33.9478 58.3073 33.5103 58.3066ZM35.8232 53.2774C35.5521 53.2785 35.2907 53.3785 35.0881 53.5586L32.7344 55.6241C32.2705 56.0312 32.2246 56.7373 32.6316 57.2011L32.6317 57.2012C32.8325 57.4349 33.1173 57.5799 33.4245 57.6046C33.7197 57.6277 34.0117 57.5297 34.2334 57.3333L36.5864 55.2678C37.0499 54.8604 37.0958 54.1546 36.689 53.6907C36.4917 53.4526 36.2055 53.3056 35.897 53.2838L35.8232 53.2774Z" fill="white"/>
<path d="M45.0287 59.6373C45.0553 59.2483 44.9249 58.8648 44.6668 58.5725L44.6457 58.5486C44.3894 58.2572 44.0273 58.0802 43.64 58.0566C43.6077 58.0566 43.5746 58.0566 43.5423 58.0566C43.1862 58.056 42.8422 58.1858 42.5752 58.4214L42.3447 58.6239L39.9635 60.714L39.331 61.2664C38.7202 61.8191 38.6732 62.7622 39.2258 63.3728C39.4836 63.6578 39.8416 63.8323 40.225 63.8597C40.6141 63.8868 40.9978 63.7564 41.2898 63.4978L44.5318 60.6522C44.827 60.3942 45.0061 60.0285 45.0287 59.6373Z" fill="white"/>
<path d="M40.3227 64.2103C40.2826 64.2103 40.2433 64.2103 40.2033 64.2068C39.191 64.1441 38.4211 63.2727 38.4839 62.2603C38.5139 61.7747 38.7355 61.3208 39.0999 60.9984L42.3392 58.1492C42.7028 57.8324 43.1763 57.6714 43.6576 57.7008C44.1386 57.7303 44.5879 57.9509 44.9051 58.3137C45.2385 58.68 45.409 59.166 45.3774 59.6603C45.347 60.141 45.1261 60.5896 44.7639 60.907L41.5218 63.7527C41.1914 64.0468 40.7649 64.2096 40.3227 64.2103ZM42.5717 58.8823L39.563 61.5234C39.0989 61.9304 39.0518 62.6361 39.4576 63.1012C39.655 63.3361 39.9393 63.4809 40.2455 63.5025C40.5424 63.5236 40.8353 63.424 41.0579 63.2263L44.3 60.3807C44.7638 59.9741 44.8102 59.2686 44.4036 58.8047C44.4033 58.8043 44.4029 58.8039 44.4026 58.8035C44.2058 58.5673 43.9209 58.4221 43.614 58.4015H43.5396C43.2682 58.4015 43.0064 58.5015 42.8044 58.6826L42.5717 58.8823Z" fill="white"/>
<path d="M64.4537 54.9432L53.0161 45.6232C48.6362 47.9488 45.5347 46.7519 44.0518 45.8053C43.2788 45.3009 43.0611 44.2652 43.5654 43.4923C43.7221 43.2521 43.9381 43.0563 44.1923 42.9238L48.0044 40.899C47.906 40.8843 47.8097 40.8717 47.7232 40.8632C44.2831 41.4067 40.8089 41.7059 37.3265 41.7585L30.6625 52.5972L32.1482 53.7294L33.8947 52.1959C35.1073 51.1314 36.9532 51.2515 38.0177 52.464C38.0178 52.4641 38.0179 52.4643 38.0181 52.4644L38.0434 52.4933C38.3929 52.894 38.6253 53.3832 38.7153 53.9073C39.2449 53.546 39.8805 53.3728 40.5202 53.4154C41.2939 53.4636 42.0162 53.8194 42.526 54.4035L42.6081 54.4977C43.1205 55.0786 43.3794 55.8402 43.3271 56.6131V56.6173C43.4608 56.6037 43.5954 56.5993 43.7298 56.604C44.5036 56.6523 45.2258 57.0081 45.7356 57.5921L45.2106 58.0953L45.7566 57.616C46.2698 58.1972 46.5292 58.9594 46.4771 59.7328C46.4771 59.7427 46.4728 59.7518 46.4721 59.7617C48.0723 59.6478 49.4618 60.8527 49.5757 62.4529C49.5852 62.5865 49.5855 62.7205 49.5765 62.8541C49.5404 63.3567 49.3738 63.8412 49.0929 64.2597L52.2267 66.068C52.9138 66.4576 53.7862 66.2264 54.1903 65.5479C54.5736 64.9003 54.3867 64.0662 53.7637 63.644L48.7738 60.1862C48.7695 60.1862 48.7674 60.1785 48.7639 60.1756L48.4279 59.943C48.1019 59.7087 48.0276 59.2547 48.2618 58.9288C48.4902 58.6108 48.9295 58.531 49.2551 58.7482L56.2931 63.6236C56.9423 64.0736 57.8333 63.9121 58.2833 63.2628C58.2836 63.2625 58.2839 63.2621 58.2842 63.2617C58.7258 62.6161 58.5696 61.736 57.9328 61.2819L50.9293 56.3144C50.9251 56.3144 50.9237 56.3067 50.9194 56.3038C50.5923 56.0709 50.5158 55.6169 50.7486 55.2896C50.9815 54.9623 51.4356 54.886 51.7628 55.1188L59.6146 60.6893C60.3013 61.1742 61.2512 61.0106 61.7361 60.3238C62.2056 59.6591 62.069 58.7426 61.4264 58.2435L52.9779 52.1558C52.644 51.9331 52.5539 51.4819 52.7766 51.148C52.9994 50.8141 53.4505 50.7241 53.7844 50.9468C53.797 50.9552 53.8092 50.9639 53.8213 50.9731L54.399 51.3849H54.4067L62.2367 57.0264C62.2514 57.037 62.262 57.0503 62.276 57.0609L62.4053 57.1536C62.4299 57.1706 62.4534 57.1891 62.4755 57.2091L62.6161 57.3055C63.2705 57.7744 64.1776 57.649 64.6803 57.0201C64.9809 56.6403 65.0782 56.138 64.9411 55.6735C64.8577 55.3856 64.6874 55.1307 64.4537 54.9432Z" fill="white"/>
<path d="M52.9387 66.6113C52.628 66.6114 52.3229 66.5297 52.0539 66.3744L48.5939 64.3791L48.8047 64.0699C49.5858 62.8916 49.2637 61.3033 48.0854 60.5222C47.7117 60.2744 47.2794 60.1292 46.8319 60.1011C46.7447 60.0968 46.6573 60.0992 46.5705 60.1081L46.0989 60.1376L46.1262 59.7378C46.1705 59.1698 46.0246 58.6034 45.7115 58.1276L45.448 58.3595L44.9729 57.8423L45.24 57.5865C44.815 57.2119 44.2774 56.9893 43.7121 56.954C43.6096 56.9506 43.507 56.9539 43.405 56.9638L43.0275 56.992L42.9804 56.5759V56.5611C43.0172 55.8911 42.7901 55.2335 42.3479 54.7289L42.2649 54.634C41.4188 53.6628 39.9806 53.477 38.9153 54.2011L38.4676 54.5019L38.3735 53.9705C38.1347 52.5657 36.8023 51.6206 35.3975 51.8594C34.9277 51.9393 34.4891 52.1478 34.1305 52.4616L32.1676 54.1849L30.1962 52.6844L37.1266 41.4113L37.3157 41.4056C40.7791 41.3528 44.2345 41.0557 47.6562 40.5166L47.7054 40.5067L47.7553 40.511C47.848 40.5194 47.9507 40.5335 48.0568 40.5489L49.111 40.707L44.3571 43.2315C43.7095 43.5661 43.4558 44.3624 43.7904 45.01C43.8953 45.213 44.0511 45.3853 44.2426 45.5101C45.6377 46.4005 48.6148 47.5609 52.8513 45.3126L53.0572 45.2029L64.6747 54.6691C64.9631 54.9033 65.1724 55.2205 65.2742 55.5778C65.4439 56.1507 65.3244 56.7705 64.9538 57.2392C64.333 58.015 63.2137 58.1694 62.406 57.5906L62.0118 57.2961L53.6174 51.252C53.4497 51.1316 53.2161 51.1699 53.0957 51.3377C53.0953 51.3382 53.095 51.3386 53.0946 51.3392C52.974 51.5074 53.0125 51.7414 53.1805 51.862C53.1809 51.8623 53.1813 51.8626 53.1817 51.8629L61.6316 57.9555C62.4508 58.5878 62.6023 59.7644 61.97 60.5836C61.3581 61.3766 60.2306 61.5478 59.4107 60.9727L51.5568 55.405C51.4753 55.3472 51.3742 55.3242 51.2757 55.3411C51.0713 55.3757 50.9337 55.5694 50.9683 55.7738C50.9849 55.872 51.0399 55.9596 51.1211 56.0173L58.1366 60.9967C58.9292 61.5631 59.1226 62.6595 58.5716 63.4629C58.0121 64.2723 56.9024 64.4749 56.0929 63.9154C56.0926 63.9152 56.0923 63.915 56.092 63.9148L49.0555 59.0387C48.8891 58.9151 48.6541 58.9499 48.5305 59.1163C48.4069 59.2828 48.4417 59.5178 48.6082 59.6413C48.615 59.6464 48.6219 59.6511 48.629 59.6558L53.9661 63.3568C54.7777 63.9124 54.9852 65.0208 54.4295 65.8324C54.1902 66.1819 53.834 66.4347 53.425 66.5454C53.2667 66.5889 53.1031 66.6112 52.9387 66.6113ZM49.5779 64.1338L52.4053 65.7657C52.9324 66.0509 53.5909 65.8549 53.876 65.3278C54.1335 64.8521 54.0013 64.2596 53.5663 63.9384L49.5778 61.1707C49.8479 61.6967 49.9694 62.2864 49.9292 62.8764C49.9007 63.3155 49.781 63.7437 49.5779 64.1338ZM48.8456 58.2703C49.0641 58.2699 49.2775 58.3364 49.4571 58.4608L56.4936 63.3362C56.9837 63.6749 57.6556 63.5525 57.9948 63.0628C58.3282 62.5761 58.2106 61.9121 57.7306 61.5693L50.6771 56.5611C50.2103 56.1914 50.1316 55.5133 50.5012 55.0466C50.8554 54.5995 51.4964 54.5055 51.9639 54.8322L59.8178 60.4027C60.3481 60.7728 61.078 60.6429 61.4481 60.1126C61.8035 59.6035 61.6996 58.9056 61.2116 58.5219L52.7722 52.4406C52.288 52.0943 52.1762 51.4211 52.5224 50.9369C52.8687 50.4527 53.5419 50.3408 54.0261 50.6871L54.6123 51.1025L62.6102 56.8719C62.6462 56.8977 62.6805 56.9259 62.7129 56.9562L62.8119 57.0209C63.3126 57.3837 64.0097 57.291 64.3982 56.8101C64.629 56.5194 64.7039 56.1345 64.5992 55.7784C64.5381 55.5578 64.4102 55.3614 64.233 55.2162L52.9733 46.0417C48.5322 48.3117 45.3661 47.0622 43.8627 46.1015C42.9256 45.4935 42.6588 44.2409 43.2668 43.3037C43.4571 43.0103 43.7204 42.7712 44.0308 42.6099L46.1856 41.4657C43.9942 41.763 41.0024 41.9844 37.5284 42.0982L31.1327 52.5066L32.1384 53.2719L33.6698 51.9282C35.0278 50.7358 37.0954 50.87 38.2878 52.228C38.2881 52.2283 38.2884 52.2287 38.2887 52.229C38.5825 52.5613 38.8067 52.9491 38.948 53.3696C39.4456 53.1278 39.9978 53.0204 40.5497 53.0583C41.4173 53.1121 42.2272 53.511 42.7986 54.1659L42.8816 54.2607C43.3676 54.8116 43.6523 55.511 43.6892 56.2448H43.7594C44.5163 56.2943 45.2321 56.6067 45.7828 57.1282L45.794 57.1183L45.9845 57.3362L46.0048 57.3588L46.2262 57.6111L46.2163 57.6209C46.5935 58.1384 46.8089 58.7558 46.8355 59.3956H46.8784C47.1905 59.4159 47.4982 59.4808 47.792 59.5881C47.6569 59.0094 48.0165 58.4308 48.5952 58.2956C48.6775 58.2765 48.7618 58.267 48.8462 58.2675L48.8456 58.2703Z" fill="white"/>
<path d="M70.6523 34.0035L63.2827 39.7118L70.1 50.8001C70.1448 50.8233 70.187 50.8513 70.2258 50.8837C70.3427 51.0042 70.4133 51.1619 70.4254 51.3293L71.4467 52.9901L74.598 51.2169L70.6523 34.0035Z" fill="white"/>
<path d="M71.3214 53.4616L70.081 51.4432L70.0733 51.3617C70.0688 51.2757 70.0339 51.194 69.9749 51.1312L69.84 51.0511L69.7985 50.9808L62.816 39.6268L70.873 33.3887L74.9999 51.3946L71.3214 53.4616ZM70.7593 51.2084L71.5646 52.5178L74.1952 51.0419L70.4331 34.6179L63.7459 39.7962L70.3523 50.5415C70.3958 50.5676 70.4361 50.5987 70.4725 50.6343C70.6266 50.7907 70.7276 50.9915 70.7613 51.2085L70.7593 51.2084Z" fill="white"/>
<path d="M61.3901 41.6804C59.9605 42.269 58.3676 42.3268 56.8991 41.8435L53.0302 40.5876C52.4955 40.4181 51.9153 40.4686 51.418 40.7281L50.1065 41.4247C50.0925 41.4317 50.0806 41.4402 50.0657 41.4465L44.8692 44.2072C44.7952 44.2426 44.747 44.3163 44.7441 44.3983C44.7384 44.4725 44.7745 44.5438 44.8376 44.5831C46.3661 45.5586 48.9842 46.2699 52.7322 44.1193C52.9934 43.9698 53.3196 43.9963 53.5531 44.186L65.3659 53.8145C65.5304 53.9497 65.679 54.1033 65.8087 54.2721L68.7296 51.3491L62.5048 41.2244L61.3901 41.6804Z" fill="white"/>
<path d="M65.7785 54.7976L65.5339 54.4876C65.4209 54.3397 65.2912 54.2052 65.1473 54.0871L53.3317 44.4614C53.2113 44.3652 53.0445 44.3515 52.91 44.4269C49.0087 46.6675 46.2657 45.9112 44.6513 44.8823C44.4814 44.7752 44.3835 44.5838 44.3961 44.3833C44.4046 44.1769 44.5243 43.9913 44.7089 43.8984L51.2555 40.4217C51.8365 40.1172 52.5152 40.0575 53.1405 40.2558L57.008 41.5097C58.3971 41.9673 59.904 41.913 61.2565 41.3564L62.6501 40.7858L69.1764 51.3982L65.7785 54.7976ZM53.092 43.6735C53.3403 43.673 53.5812 43.7578 53.7744 43.9138L65.5879 53.5423C65.6711 53.6094 65.7502 53.6815 65.8248 53.758L68.2846 51.2982L62.3619 41.662L61.5242 42.0049C60.0169 42.6254 58.3375 42.6862 56.7893 42.1764L52.9238 40.9212C52.4787 40.7814 51.9963 40.8244 51.5829 41.0407L45.2344 44.4143C46.7054 45.2688 49.1251 45.7896 52.5597 43.8169C52.7218 43.7237 52.9053 43.6743 53.092 43.6735Z" fill="white"/>
</g>
<defs>
<clipPath id="clip0">
<rect width="50" height="50" fill="white" transform="translate(25 25)"/>
</clipPath>
</defs>
</svg>
