<svg width="100" height="100" viewBox="0 0 100 100" fill="none" xmlns="http://www.w3.org/2000/svg">
<rect width="100" height="100" rx="50" fill="black"/>
<g clip-path="url(#clip0)">
<path d="M52.1458 28.8959L29.25 25.4167C28.1875 25.25 27.1042 25.5417 26.2917 26.2292C25.4792 26.9375 25 27.9584 25 29.0209V72.9167C25 74.0625 25.9375 75 27.0833 75H33.8542V64.0625C33.8542 62.0417 35.4792 60.4167 37.5 60.4167H42.7083C44.7292 60.4167 46.3542 62.0417 46.3542 64.0625V75H55.2083V32.5C55.2083 30.7084 53.9167 29.1875 52.1458 28.8959ZM36.4583 55.7292H33.3333C32.4708 55.7292 31.7708 55.0292 31.7708 54.1667C31.7708 53.3042 32.4708 52.6042 33.3333 52.6042H36.4583C37.3208 52.6042 38.0208 53.3042 38.0208 54.1667C38.0208 55.0292 37.3208 55.7292 36.4583 55.7292ZM36.4583 49.4792H33.3333C32.4708 49.4792 31.7708 48.7792 31.7708 47.9167C31.7708 47.0542 32.4708 46.3542 33.3333 46.3542H36.4583C37.3208 46.3542 38.0208 47.0542 38.0208 47.9167C38.0208 48.7792 37.3208 49.4792 36.4583 49.4792ZM36.4583 43.2292H33.3333C32.4708 43.2292 31.7708 42.5292 31.7708 41.6667C31.7708 40.8042 32.4708 40.1042 33.3333 40.1042H36.4583C37.3208 40.1042 38.0208 40.8042 38.0208 41.6667C38.0208 42.5292 37.3208 43.2292 36.4583 43.2292ZM36.4583 36.9792H33.3333C32.4708 36.9792 31.7708 36.2792 31.7708 35.4167C31.7708 34.5542 32.4708 33.8542 33.3333 33.8542H36.4583C37.3208 33.8542 38.0208 34.5542 38.0208 35.4167C38.0208 36.2792 37.3208 36.9792 36.4583 36.9792ZM46.875 55.7292H43.75C42.8875 55.7292 42.1875 55.0292 42.1875 54.1667C42.1875 53.3042 42.8875 52.6042 43.75 52.6042H46.875C47.7375 52.6042 48.4375 53.3042 48.4375 54.1667C48.4375 55.0292 47.7375 55.7292 46.875 55.7292ZM46.875 49.4792H43.75C42.8875 49.4792 42.1875 48.7792 42.1875 47.9167C42.1875 47.0542 42.8875 46.3542 43.75 46.3542H46.875C47.7375 46.3542 48.4375 47.0542 48.4375 47.9167C48.4375 48.7792 47.7375 49.4792 46.875 49.4792ZM46.875 43.2292H43.75C42.8875 43.2292 42.1875 42.5292 42.1875 41.6667C42.1875 40.8042 42.8875 40.1042 43.75 40.1042H46.875C47.7375 40.1042 48.4375 40.8042 48.4375 41.6667C48.4375 42.5292 47.7375 43.2292 46.875 43.2292ZM46.875 36.9792H43.75C42.8875 36.9792 42.1875 36.2792 42.1875 35.4167C42.1875 34.5542 42.8875 33.8542 43.75 33.8542H46.875C47.7375 33.8542 48.4375 34.5542 48.4375 35.4167C48.4375 36.2792 47.7375 36.9792 46.875 36.9792Z" fill="white"/>
<path d="M72.125 47.5875L57.2916 44.4812V75H71.3541C73.3645 75 75 73.3645 75 71.3541V51.15C75 49.4291 73.827 47.9645 72.125 47.5875ZM67.1875 68.75H64.0625C63.2 68.75 62.5 68.05 62.5 67.1875C62.5 66.325 63.2 65.625 64.0625 65.625H67.1875C68.05 65.625 68.75 66.325 68.75 67.1875C68.75 68.05 68.05 68.75 67.1875 68.75ZM67.1875 62.5H64.0625C63.2 62.5 62.5 61.8 62.5 60.9375C62.5 60.075 63.2 59.375 64.0625 59.375H67.1875C68.05 59.375 68.75 60.075 68.75 60.9375C68.75 61.8 68.05 62.5 67.1875 62.5ZM67.1875 56.25H64.0625C63.2 56.25 62.5 55.55 62.5 54.6875C62.5 53.825 63.2 53.125 64.0625 53.125H67.1875C68.05 53.125 68.75 53.825 68.75 54.6875C68.75 55.55 68.05 56.25 67.1875 56.25Z" fill="white"/>
</g>
<defs>
<clipPath id="clip0">
<rect width="50" height="50" fill="white" transform="translate(25 25)"/>
</clipPath>
</defs>
</svg>
